<mxfile host="app.diagrams.net" modified="2022-03-27T22:22:45.907Z" agent="5.0 (Windows NT 6.3; Win64; x64) AppleWebKit/537.36 (KHTML, like Gecko) Chrome/99.0.4844.74 Safari/537.36 Edg/99.0.1150.52" etag="JJTQevkqvkggvIZ7ukNQ" version="17.2.4" type="github">
  <diagram id="C5RBs43oDa-KdzZeNtuy" name="Page-1">
    <mxGraphModel dx="1002" dy="550" grid="1" gridSize="10" guides="1" tooltips="1" connect="1" arrows="1" fold="1" page="1" pageScale="1" pageWidth="827" pageHeight="1169" math="0" shadow="0">
      <root>
        <mxCell id="WIyWlLk6GJQsqaUBKTNV-0" />
        <mxCell id="WIyWlLk6GJQsqaUBKTNV-1" parent="WIyWlLk6GJQsqaUBKTNV-0" />
        <mxCell id="zkfFHV4jXpPFQw0GAbJ--0" value="Administrador_Usuarios" style="swimlane;fontStyle=2;align=center;verticalAlign=top;childLayout=stackLayout;horizontal=1;startSize=26;horizontalStack=0;resizeParent=1;resizeLast=0;collapsible=1;marginBottom=0;rounded=0;shadow=0;strokeWidth=1;" parent="WIyWlLk6GJQsqaUBKTNV-1" vertex="1">
          <mxGeometry x="40" y="30" width="260" height="282" as="geometry">
            <mxRectangle x="230" y="140" width="160" height="26" as="alternateBounds" />
          </mxGeometry>
        </mxCell>
        <mxCell id="zkfFHV4jXpPFQw0GAbJ--1" value="ID: Entero" style="text;align=left;verticalAlign=top;spacingLeft=4;spacingRight=4;overflow=hidden;rotatable=0;points=[[0,0.5],[1,0.5]];portConstraint=eastwest;" parent="zkfFHV4jXpPFQw0GAbJ--0" vertex="1">
          <mxGeometry y="26" width="260" height="26" as="geometry" />
        </mxCell>
        <mxCell id="zkfFHV4jXpPFQw0GAbJ--4" value="" style="line;html=1;strokeWidth=1;align=left;verticalAlign=middle;spacingTop=-1;spacingLeft=3;spacingRight=3;rotatable=0;labelPosition=right;points=[];portConstraint=eastwest;" parent="zkfFHV4jXpPFQw0GAbJ--0" vertex="1">
          <mxGeometry y="52" width="260" height="20" as="geometry" />
        </mxCell>
        <mxCell id="zkfFHV4jXpPFQw0GAbJ--5" value="&lt;&lt;consulta&gt;&gt;&#xa;verificar(nombre, contraseña: string): entero&#xa;&lt;&lt;comando&gt;&gt;&#xa;crearUsuario():boleano&#xa;&lt;&lt;comando&gt;&gt;&#xa;ingresar(id_usuario_ingreso:entero)&#xa;&lt;&lt;comando&gt;&gt;&#xa;modificar(nombre, constraseña:string)&#xa;&lt;&lt;comando&gt;&gt;&#xa;Eliminar():boleano&#xa;&lt;&lt;comando&gt;&gt;&#xa;cerrarSeccion()" style="text;align=left;verticalAlign=top;spacingLeft=4;spacingRight=4;overflow=hidden;rotatable=0;points=[[0,0.5],[1,0.5]];portConstraint=eastwest;" parent="zkfFHV4jXpPFQw0GAbJ--0" vertex="1">
          <mxGeometry y="72" width="260" height="210" as="geometry" />
        </mxCell>
        <mxCell id="RLNDX7S--gvSMgXWwdHt-0" value="Administrador_Inventario" style="swimlane;fontStyle=2;align=center;verticalAlign=top;childLayout=stackLayout;horizontal=1;startSize=26;horizontalStack=0;resizeParent=1;resizeLast=0;collapsible=1;marginBottom=0;rounded=0;shadow=0;strokeWidth=1;" vertex="1" parent="WIyWlLk6GJQsqaUBKTNV-1">
          <mxGeometry x="430" y="30" width="276" height="290" as="geometry">
            <mxRectangle x="230" y="140" width="160" height="26" as="alternateBounds" />
          </mxGeometry>
        </mxCell>
        <mxCell id="RLNDX7S--gvSMgXWwdHt-1" value="ID: Entero&#xa;Valor_Bolivar: Entero" style="text;align=left;verticalAlign=top;spacingLeft=4;spacingRight=4;overflow=hidden;rotatable=0;points=[[0,0.5],[1,0.5]];portConstraint=eastwest;" vertex="1" parent="RLNDX7S--gvSMgXWwdHt-0">
          <mxGeometry y="26" width="276" height="34" as="geometry" />
        </mxCell>
        <mxCell id="RLNDX7S--gvSMgXWwdHt-2" value="" style="line;html=1;strokeWidth=1;align=left;verticalAlign=middle;spacingTop=-1;spacingLeft=3;spacingRight=3;rotatable=0;labelPosition=right;points=[];portConstraint=eastwest;" vertex="1" parent="RLNDX7S--gvSMgXWwdHt-0">
          <mxGeometry y="60" width="276" height="20" as="geometry" />
        </mxCell>
        <mxCell id="RLNDX7S--gvSMgXWwdHt-3" value="&lt;&lt;consulta&gt;&gt;&#xa;mostrarListaInventarios()&#xa;&lt;&lt;comando&gt;&gt;&#xa;selecionar(id_inventario_ingreso:entero)&#xa;&lt;&lt;comando&gt;&gt;&#xa;modificarPrecioDivisa(precio:entero)&#xa;&lt;&lt;comando&gt;&gt;&#xa;crearInventario():boleano&#xa;&lt;&lt;comando&gt;&gt;&#xa;modificarNombreInventario(nombre_nuevo:string)&#xa;&lt;&lt;comando&gt;&gt;&#xa;Eliminar(id):boleano" style="text;align=left;verticalAlign=top;spacingLeft=4;spacingRight=4;overflow=hidden;rotatable=0;points=[[0,0.5],[1,0.5]];portConstraint=eastwest;" vertex="1" parent="RLNDX7S--gvSMgXWwdHt-0">
          <mxGeometry y="80" width="276" height="210" as="geometry" />
        </mxCell>
        <mxCell id="RLNDX7S--gvSMgXWwdHt-4" value="" style="endArrow=classic;html=1;rounded=0;entryX=1.008;entryY=0.278;entryDx=0;entryDy=0;entryPerimeter=0;exitX=0;exitY=0.276;exitDx=0;exitDy=0;exitPerimeter=0;" edge="1" parent="WIyWlLk6GJQsqaUBKTNV-1" target="zkfFHV4jXpPFQw0GAbJ--5">
          <mxGeometry width="50" height="50" relative="1" as="geometry">
            <mxPoint x="429" y="159.96" as="sourcePoint" />
            <mxPoint x="303.41999999999996" y="161.64" as="targetPoint" />
          </mxGeometry>
        </mxCell>
        <mxCell id="RLNDX7S--gvSMgXWwdHt-6" value="Administrador_Productos&#xa;" style="swimlane;fontStyle=2;align=center;verticalAlign=top;childLayout=stackLayout;horizontal=1;startSize=26;horizontalStack=0;resizeParent=1;resizeLast=0;collapsible=1;marginBottom=0;rounded=0;shadow=0;strokeWidth=1;" vertex="1" parent="WIyWlLk6GJQsqaUBKTNV-1">
          <mxGeometry x="413" y="380" width="310" height="282" as="geometry">
            <mxRectangle x="230" y="140" width="160" height="26" as="alternateBounds" />
          </mxGeometry>
        </mxCell>
        <mxCell id="RLNDX7S--gvSMgXWwdHt-7" value="ID: Entero" style="text;align=left;verticalAlign=top;spacingLeft=4;spacingRight=4;overflow=hidden;rotatable=0;points=[[0,0.5],[1,0.5]];portConstraint=eastwest;" vertex="1" parent="RLNDX7S--gvSMgXWwdHt-6">
          <mxGeometry y="26" width="310" height="26" as="geometry" />
        </mxCell>
        <mxCell id="RLNDX7S--gvSMgXWwdHt-8" value="" style="line;html=1;strokeWidth=1;align=left;verticalAlign=middle;spacingTop=-1;spacingLeft=3;spacingRight=3;rotatable=0;labelPosition=right;points=[];portConstraint=eastwest;" vertex="1" parent="RLNDX7S--gvSMgXWwdHt-6">
          <mxGeometry y="52" width="310" height="20" as="geometry" />
        </mxCell>
        <mxCell id="RLNDX7S--gvSMgXWwdHt-9" value="&lt;&lt;comando&gt;&gt;&#xa;creaProducto():boleano&#xa;&lt;&lt;consulta&gt;&gt;&#xa;mostrarListaProducto()&#xa;&lt;&lt;comando&gt;&gt;&#xa;selecionarProductoActual(id_producto_ingreso:entero)&#xa;&lt;&lt;comando&gt;&gt;&#xa;modificarProducto(atributo:string, nuevo_valor)&#xa;&lt;&lt;consulta&gt;&gt;&#xa;mostrarDetallesProducto()&#xa;&lt;&lt;comando&gt;&gt;&#xa;EliminarProducto(id):boleano" style="text;align=left;verticalAlign=top;spacingLeft=4;spacingRight=4;overflow=hidden;rotatable=0;points=[[0,0.5],[1,0.5]];portConstraint=eastwest;" vertex="1" parent="RLNDX7S--gvSMgXWwdHt-6">
          <mxGeometry y="72" width="310" height="210" as="geometry" />
        </mxCell>
        <mxCell id="RLNDX7S--gvSMgXWwdHt-10" value="" style="endArrow=classic;html=1;rounded=0;entryX=0.472;entryY=1;entryDx=0;entryDy=0;entryPerimeter=0;" edge="1" parent="WIyWlLk6GJQsqaUBKTNV-1" target="RLNDX7S--gvSMgXWwdHt-3">
          <mxGeometry width="50" height="50" relative="1" as="geometry">
            <mxPoint x="560" y="380" as="sourcePoint" />
            <mxPoint x="560" y="320" as="targetPoint" />
          </mxGeometry>
        </mxCell>
        <mxCell id="RLNDX7S--gvSMgXWwdHt-11" value="Necesita" style="rounded=0;whiteSpace=wrap;html=1;" vertex="1" parent="WIyWlLk6GJQsqaUBKTNV-1">
          <mxGeometry x="340" y="140" width="60" height="20" as="geometry" />
        </mxCell>
        <mxCell id="RLNDX7S--gvSMgXWwdHt-13" value="Necesita" style="rounded=0;whiteSpace=wrap;html=1;" vertex="1" parent="WIyWlLk6GJQsqaUBKTNV-1">
          <mxGeometry x="560" y="360" width="60" height="20" as="geometry" />
        </mxCell>
      </root>
    </mxGraphModel>
  </diagram>
</mxfile>
